<?xml version="1.0" standalone="no"?>
<!DOCTYPE svg PUBLIC "-//W3C//DTD SVG 20010904//EN"
 "http://www.w3.org/TR/2001/REC-SVG-20010904/DTD/svg10.dtd">
<svg version="1.0" xmlns="http://www.w3.org/2000/svg"
 width="600.000000pt" height="156.000000pt" viewBox="0 0 600.000000 156.000000"
 preserveAspectRatio="xMidYMid meet">

<g transform="translate(0.000000,156.000000) scale(0.100000,-0.100000)"
fill="#000000" stroke="none">
<path d="M390 1317 l0 -55 128 -4 c138 -4 160 -11 228 -70 60 -52 88 -120 89
-208 0 -83 -19 -129 -77 -195 l-31 -36 30 -32 c56 -59 78 -113 78 -197 -1 -88
-29 -156 -89 -208 -73 -64 -84 -67 -288 -70 l-188 -4 0 456 0 456 -50 0 -50 0
0 -511 0 -511 233 4 c256 4 289 11 379 77 23 17 46 31 50 31 4 0 8 -25 8 -55
l0 -55 50 0 50 0 0 230 0 230 158 0 c110 0 176 5 217 16 119 30 207 103 258
212 29 61 32 76 32 167 0 90 -3 106 -29 160 -55 112 -167 195 -292 215 -32 6
-146 10 -251 10 l-193 0 0 -55 c0 -30 -3 -55 -6 -55 -3 0 -26 14 -51 32 -79
54 -135 70 -270 76 l-123 5 0 -56z m958 -83 c98 -49 156 -143 156 -254 0 -106
-51 -194 -143 -248 -45 -26 -50 -27 -233 -30 l-188 -4 0 281 0 281 178 0 c171
0 180 -1 230 -26z"/>
<path d="M1894 1356 c-3 -8 -4 -31 -2 -52 3 -37 4 -38 58 -49 107 -21 197
-110 220 -219 7 -33 10 -178 8 -421 l-3 -370 -186 0 -186 0 -48 30 c-96 59
-154 175 -141 278 17 123 112 226 229 245 l42 7 3 53 c3 58 5 57 -70 41 -118
-25 -226 -110 -276 -217 -24 -50 -27 -69 -27 -162 0 -95 3 -110 28 -163 55
-110 165 -194 286 -217 73 -14 721 -13 797 1 126 23 237 109 292 226 l27 58 0
325 0 325 -27 57 c-15 32 -48 80 -74 109 -102 108 -176 129 -466 129 l-198 0
0 -55 c0 -30 -3 -55 -8 -55 -4 0 -29 16 -56 35 -73 52 -211 89 -222 61z m756
-107 c64 -19 131 -78 165 -144 l30 -59 0 -295 c0 -260 -2 -301 -17 -334 -30
-67 -76 -114 -140 -146 l-61 -31 -174 0 -173 0 0 510 0 510 166 0 c95 0 183
-5 204 -11z"/>
</g>
</svg>
